<?xml version="1.0" encoding="UTF-8"?>
<svg version="1.1" xmlns="http://www.w3.org/2000/svg" width="256" height="182">
<path d="M0 0 C84.48 0 168.96 0 256 0 C256 60.06 256 120.12 256 182 C171.52 182 87.04 182 0 182 C0 121.94 0 61.88 0 0 Z " fill="#050505" transform="translate(0,0)"/>
<path d="M0 0 C0 7.92 0 15.84 0 24 C-8.93554688 26.97851562 -8.93554688 26.97851562 -17.87109375 29.95703125 C-18.91120605 30.30459473 -19.95131836 30.6521582 -21.02294922 31.01025391 C-22.89748028 31.63345785 -24.77387174 32.25112017 -26.65283203 32.86083984 C-27.43899902 33.11687988 -28.22516602 33.37291992 -29.03515625 33.63671875 C-29.71070557 33.85416748 -30.38625488 34.07161621 -31.08227539 34.2956543 C-33.0592295 34.9800636 -33.0592295 34.9800636 -35.07299805 36.0456543 C-37.5839682 37.28920964 -39.99219299 37.6653655 -42.75 38.125 C-43.73484375 38.29257813 -44.7196875 38.46015625 -45.734375 38.6328125 C-46.48203125 38.75398438 -47.2296875 38.87515625 -48 39 C-48 39.99 -48 40.98 -48 42 C-47.27562744 42.27312012 -46.55125488 42.54624023 -45.80493164 42.82763672 C-43.08667492 43.96377291 -40.65655017 45.26202538 -38.12109375 46.7578125 C-37.20521484 47.29712402 -36.28933594 47.83643555 -35.34570312 48.39208984 C-34.38599609 48.9639502 -33.42628906 49.53581055 -32.4375 50.125 C-31.45330078 50.71104004 -30.46910156 51.29708008 -29.45507812 51.90087891 C-5.04377203 66.51140815 -5.04377203 66.51140815 0 78 C-7.62062638 75.8631277 -15.01950674 73.23141684 -22.43469238 70.47195435 C-25.74829428 69.23902135 -29.06542716 68.01567883 -32.3828125 66.79296875 C-33.0380188 66.55134506 -33.6932251 66.30972137 -34.36828613 66.06077576 C-39.97422585 63.99856566 -45.60545259 62.01598136 -51.25 60.0625 C-53.53223767 59.26443651 -55.81388409 58.46471425 -58.09521484 57.6640625 C-59.74374745 57.08933696 -61.39687296 56.52781759 -63.05078125 55.96875 C-70.00127355 53.46095185 -78.23695789 49.32655995 -82.3046875 42.95703125 C-83.52473356 39.52308139 -83.05892803 37.47093077 -82 34 C-75.32053738 26.22663035 -66.01613019 21.66020566 -56.48046875 18.4765625 C-55.13339592 18.01266617 -55.13339592 18.01266617 -53.7591095 17.53939819 C-50.90503687 16.558484 -48.04658596 15.59119226 -45.1875 14.625 C-42.3796572 13.66694723 -39.57282577 12.70599548 -36.76638794 11.74383545 C-34.91469809 11.10923579 -33.06238479 10.47645229 -31.20944214 9.84552002 C-24.0780868 7.40649237 -17.00787308 4.81986973 -9.97831726 2.10098267 C-6.40682975 0.74795196 -3.86712419 0 0 0 Z " fill="#2D6681" transform="translate(162,30)"/>
<path d="M0 0 C3.35749888 0.60708092 6.45576915 1.43183959 9.65625 2.609375 C10.57833252 2.94533691 11.50041504 3.28129883 12.45043945 3.62744141 C13.45679443 3.99788574 14.46314941 4.36833008 15.5 4.75 C23.45970376 7.66315885 31.43514195 10.50582848 39.45703125 13.2421875 C41.92683251 14.09017166 44.39631146 14.9390887 46.86572266 15.78820801 C48.47764184 16.33948051 50.09106188 16.88638682 51.70605469 17.42858887 C78.64540128 26.48071338 78.64540128 26.48071338 84 36 C84.14680689 40.1839963 83.62758377 42.19021449 81.0625 45.5 C80.051875 46.325 79.04125 47.15 78 48 C77.28457031 48.59167969 76.56914062 49.18335938 75.83203125 49.79296875 C69.78778817 54.45347414 64.57592705 56.29425775 57 57 C57 57.66 57 58.32 57 59 C56.2879541 59.25056152 55.5759082 59.50112305 54.84228516 59.75927734 C40.14006958 64.94373046 25.51295654 70.24689779 11.00244141 75.95068359 C9.97812012 76.35109863 8.95379883 76.75151367 7.8984375 77.1640625 C6.54758057 77.69700928 6.54758057 77.69700928 5.16943359 78.24072266 C3 79 3 79 1 79 C1 71.08 1 63.16 1 55 C11.12056952 50.5019691 11.12056952 50.5019691 14.859375 49.1484375 C16.06787109 48.70757812 16.06787109 48.70757812 17.30078125 48.2578125 C18.10902344 47.96648437 18.91726562 47.67515625 19.75 47.375 C21.39084867 46.77926152 23.03148033 46.18292493 24.671875 45.5859375 C25.43193848 45.31040039 26.19200195 45.03486328 26.97509766 44.75097656 C28.56165434 44.16256948 30.13212044 43.53074428 31.6953125 42.8828125 C35.44565909 41.44623906 39.34988634 40.67783156 43.2578125 39.78125 C46.18252314 39.09895142 46.18252314 39.09895142 49 37 C48.17387207 36.52167725 47.34774414 36.04335449 46.49658203 35.55053711 C43.38148355 33.74531102 40.26986757 31.93415177 37.15917969 30.12133789 C35.82188125 29.34306615 34.48368936 28.56632723 33.14453125 27.79125977 C6.59947903 12.42254877 6.59947903 12.42254877 0 0 Z " fill="#2D6580" transform="translate(81,81)"/>
<path d="M0 0 C1.67689581 1.65637436 3.34155204 3.32515496 5 5 C7.33178665 6.70405177 9.77964313 8.19363354 12.25 9.6875 C13.30054565 10.33368286 13.30054565 10.33368286 14.37231445 10.99291992 C19.27493186 13.9938433 24.22608945 16.91019848 29.1875 19.8125 C32.12734723 21.53770253 35.06417371 23.26796512 38 25 C38.8854248 25.52029785 39.77084961 26.0405957 40.68310547 26.57666016 C43.5063746 28.2443541 46.31655752 29.93247869 49.125 31.625 C50.0018042 32.13909424 50.8786084 32.65318848 51.78198242 33.18286133 C59.53441943 37.89755395 65.41919299 43.57457175 69 52 C61.37937362 49.8631277 53.98049326 47.23141684 46.56530762 44.47195435 C43.25170572 43.23902135 39.93457284 42.01567883 36.6171875 40.79296875 C35.9619812 40.55134506 35.3067749 40.30972137 34.63171387 40.06077576 C29.02577415 37.99856566 23.39454741 36.01598136 17.75 34.0625 C15.46776233 33.26443651 13.18611591 32.46471425 10.90478516 31.6640625 C9.25625255 31.08933696 7.60312704 30.52781759 5.94921875 29.96875 C-1.00127355 27.46095185 -9.23695789 23.32655995 -13.3046875 16.95703125 C-14.52473356 13.52308139 -14.05892803 11.47093077 -13 8 C-9.41500558 4.0384635 -5.54096802 0 0 0 Z " fill="#3895A1" transform="translate(93,56)"/>
<path d="M0 0 C3.35749888 0.60708092 6.45576915 1.43183959 9.65625 2.609375 C10.57833252 2.94533691 11.50041504 3.28129883 12.45043945 3.62744141 C13.45679443 3.99788574 14.46314941 4.36833008 15.5 4.75 C23.45970376 7.66315885 31.43514195 10.50582848 39.45703125 13.2421875 C41.92683251 14.09017166 44.39631146 14.9390887 46.86572266 15.78820801 C48.47764184 16.33948051 50.09106188 16.88638682 51.70605469 17.42858887 C78.64540128 26.48071338 78.64540128 26.48071338 84 36 C84.15369668 40.38035536 83.58108103 42.28610044 80.8125 45.6875 C73.13513514 52 73.13513514 52 70 52 C69.60808472 51.07803833 69.60808472 51.07803833 69.20825195 50.13745117 C67.22016527 46.62043786 63.63270366 45.19826559 60.1875 43.3125 C58.4732631 42.34628451 56.75977216 41.37874482 55.046875 40.41015625 C54.09490234 39.87535645 53.14292969 39.34055664 52.16210938 38.78955078 C46.69732631 35.69683461 41.27261117 32.53589367 35.85171509 29.36703491 C33.97995263 28.27477312 32.10477177 27.1885701 30.22924805 26.1027832 C6.5496612 12.32877403 6.5496612 12.32877403 0 0 Z " fill="#3995A2" transform="translate(81,81)"/>
<path d="M0 0 C9.95540378 3.25522555 19.80777958 6.7199275 29.625 10.375 C41.6691911 14.83600134 53.77861896 19.04761077 66 23 C65.01 24.485 65.01 24.485 64 26 C63.33790527 25.73453369 62.67581055 25.46906738 61.99365234 25.19555664 C47.57636786 19.43781385 33.04747178 14.13353388 18.375 9.0625 C16.38531056 8.37205049 14.39572663 7.68129684 12.40625 6.99023438 C7.60537046 5.32332967 2.80310067 3.6604932 -2 2 C-1.34 1.34 -0.68 0.68 0 0 Z " fill="#132D30" transform="translate(93,83)"/>
<path d="M0 0 C-0.76183594 0.31453125 -1.52367188 0.6290625 -2.30859375 0.953125 C-12.76255815 5.23363423 -12.76255815 5.23363423 -23 10 C-23.33 9.01 -23.66 8.02 -24 7 C-20.37951535 5.63353607 -16.75297365 4.28394128 -13.125 2.9375 C-12.09246094 2.54755859 -11.05992188 2.15761719 -9.99609375 1.75585938 C-9.00996094 1.39169922 -8.02382812 1.02753906 -7.0078125 0.65234375 C-5.64100342 0.14175415 -5.64100342 0.14175415 -4.24658203 -0.37915039 C-2 -1 -2 -1 0 0 Z " fill="#1F3C55" transform="translate(118,46)"/>
<path d="M0 0 C5.94 1.485 5.94 1.485 12 3 C11.01 4.485 11.01 4.485 10 6 C6.40992874 4.66654496 3.20429093 3.1056769 0 1 C0 0.67 0 0.34 0 0 Z " fill="#11282B" transform="translate(147,103)"/>
<path d="M0 0 C0 0.66 0 1.32 0 2 C-1.11375 2.474375 -2.2275 2.94875 -3.375 3.4375 C-5.26710994 4.25306463 -7.15712709 5.07856355 -9 6 C-9.33 5.01 -9.66 4.02 -10 3 C-8.70990357 2.49596232 -7.41786211 1.99690074 -6.125 1.5 C-5.04605469 1.08234375 -5.04605469 1.08234375 -3.9453125 0.65625 C-2 0 -2 0 0 0 Z " fill="#192445" transform="translate(104,50)"/>
</svg>
